<svg width="629.903" height="118.182" viewBox="0 0 629.903 118.182" xmlns="http://www.w3.org/2000/svg"><g id="svgGroup" stroke-linecap="round" fill-rule="evenodd" font-size="9pt" stroke="#000" stroke-width="0.25mm" fill="#000" style="stroke:#000;stroke-width:0.25mm;fill:#000"><path d="M 146.484 22.727 L 161.79 22.727 L 161.79 95.455 L 148.509 95.455 L 116.868 49.68 L 116.335 49.68 L 116.335 95.455 L 100.959 95.455 L 100.959 22.727 L 114.453 22.727 L 145.845 68.466 L 146.484 68.466 L 146.484 22.727 Z M 224.077 67.898 L 224.077 72.053 L 178.018 72.053 L 178.018 62.678 L 209.837 62.678 A 12.786 12.786 0 0 0 209.436 59.417 A 10.632 10.632 0 0 0 208.416 56.889 A 10.336 10.336 0 0 0 204.492 52.93 A 10.789 10.789 0 0 0 200.481 51.605 A 13.765 13.765 0 0 0 198.686 51.491 A 12.776 12.776 0 0 0 195.252 51.937 A 10.788 10.788 0 0 0 192.596 53.072 Q 189.95 54.652 188.459 57.298 A 11.945 11.945 0 0 0 186.942 62.773 A 14.055 14.055 0 0 0 186.932 63.175 L 186.932 72.088 A 18.297 18.297 0 0 0 187.221 75.42 A 13.307 13.307 0 0 0 188.441 79.084 Q 189.95 82.031 192.72 83.629 A 11.761 11.761 0 0 0 196.692 85.021 A 15.723 15.723 0 0 0 199.29 85.227 A 15.57 15.57 0 0 0 202.098 84.983 A 12.82 12.82 0 0 0 203.906 84.517 A 9.883 9.883 0 0 0 206.606 83.129 A 9.083 9.083 0 0 0 207.493 82.386 A 9.177 9.177 0 0 0 209.639 79.224 A 10.7 10.7 0 0 0 209.766 78.906 L 223.757 79.83 Q 222.692 84.872 219.407 88.619 A 20.964 20.964 0 0 1 213.274 93.377 A 25.753 25.753 0 0 1 210.955 94.442 Q 205.788 96.52 199.041 96.52 A 34.708 34.708 0 0 1 192.129 95.864 A 25.561 25.561 0 0 1 184.57 93.093 A 23.18 23.18 0 0 1 175.249 83.363 A 28.395 28.395 0 0 1 172.542 75.178 A 38.817 38.817 0 0 1 171.982 68.43 A 36.718 36.718 0 0 1 172.748 60.76 A 28.437 28.437 0 0 1 175.249 53.658 A 24.113 24.113 0 0 1 184.464 43.75 A 24.904 24.904 0 0 1 193.624 40.546 A 32.334 32.334 0 0 1 198.437 40.199 A 29.892 29.892 0 0 1 205.821 41.089 A 26.852 26.852 0 0 1 208.505 41.921 Q 213.175 43.643 216.673 47.088 Q 220.17 50.533 222.124 55.735 A 29.336 29.336 0 0 1 223.618 61.567 Q 224.077 64.526 224.077 67.898 Z M 628.658 56.463 L 614.808 57.315 A 7.283 7.283 0 0 0 613.281 54.102 A 7.988 7.988 0 0 0 611.141 52.28 A 9.882 9.882 0 0 0 610.21 51.793 A 9.195 9.195 0 0 0 607.994 51.116 Q 606.919 50.923 605.682 50.923 A 13.963 13.963 0 0 0 603.007 51.167 Q 601.299 51.5 599.932 52.29 A 8.772 8.772 0 0 0 599.751 52.397 Q 597.337 53.871 597.337 56.321 A 4.149 4.149 0 0 0 598.665 59.409 A 5.521 5.521 0 0 0 598.899 59.624 A 6.266 6.266 0 0 0 600.094 60.415 Q 601.368 61.081 603.352 61.579 A 27.558 27.558 0 0 0 604.261 61.79 L 614.134 63.778 A 38.754 38.754 0 0 1 618.71 64.994 Q 621.009 65.769 622.83 66.779 A 16.136 16.136 0 0 1 625.994 69.034 Q 629.901 72.656 629.901 78.551 Q 629.901 83.913 626.758 87.962 Q 623.615 92.01 618.164 94.265 A 29.017 29.017 0 0 1 611.309 96.119 A 38.792 38.792 0 0 1 605.611 96.52 Q 594.78 96.52 588.37 91.992 A 17.436 17.436 0 0 1 580.953 80.257 A 21.386 21.386 0 0 1 580.859 79.652 L 595.739 78.871 A 8.48 8.48 0 0 0 596.738 81.529 A 7.29 7.29 0 0 0 599.006 83.896 A 9.78 9.78 0 0 0 602.145 85.233 Q 603.733 85.618 605.646 85.618 A 16.781 16.781 0 0 0 608.198 85.435 Q 609.576 85.223 610.707 84.764 A 8.417 8.417 0 0 0 612.056 84.073 A 6.362 6.362 0 0 0 613.369 82.991 A 4.296 4.296 0 0 0 614.524 80.078 A 4.159 4.159 0 0 0 613.113 76.965 A 5.508 5.508 0 0 0 612.784 76.687 Q 611.152 75.411 607.826 74.706 A 26.206 26.206 0 0 0 607.528 74.645 L 598.082 72.763 Q 592.753 71.697 589.248 69.588 A 15.397 15.397 0 0 1 586.204 67.223 A 13.358 13.358 0 0 1 582.378 58.689 A 17.973 17.973 0 0 1 582.315 57.173 Q 582.315 51.918 585.174 48.118 Q 588.033 44.318 593.235 42.259 Q 598.438 40.199 605.433 40.199 A 39.528 39.528 0 0 1 611.881 40.692 Q 617.765 41.666 621.715 44.567 A 16.823 16.823 0 0 1 628.591 55.996 A 21.331 21.331 0 0 1 628.658 56.463 Z M 230.966 40.909 L 246.591 40.909 L 256.605 59.979 L 266.868 40.909 L 282.386 40.909 L 266.584 68.182 L 282.813 95.455 L 267.365 95.455 L 256.605 76.598 L 246.023 95.455 L 230.398 95.455 L 246.591 68.182 L 230.966 40.909 Z M 349.964 35.405 L 327.699 35.405 L 327.699 22.727 L 387.429 22.727 L 387.429 35.405 L 365.163 35.405 L 365.163 95.455 L 349.964 95.455 L 349.964 35.405 Z M 493.963 50.071 L 494.425 50.071 L 494.425 22.727 L 509.517 22.727 L 509.517 95.455 L 494.602 95.455 L 494.602 86.719 L 493.963 86.719 Q 492.898 88.991 490.962 91.211 A 14.029 14.029 0 0 1 487.933 93.795 A 17.743 17.743 0 0 1 485.955 94.886 Q 483.173 96.205 479.297 96.329 A 25.524 25.524 0 0 1 478.48 96.342 Q 472.266 96.342 467.241 93.129 A 20.354 20.354 0 0 1 461.322 87.266 A 26.594 26.594 0 0 1 459.286 83.647 A 29.072 29.072 0 0 1 457.183 77.143 Q 456.563 74.112 456.408 70.627 A 53.424 53.424 0 0 1 456.357 68.253 Q 456.357 58.878 459.375 52.646 A 25.398 25.398 0 0 1 462.522 47.639 A 19.607 19.607 0 0 1 467.418 43.306 A 20.561 20.561 0 0 1 478.445 40.199 A 22.6 22.6 0 0 1 481.668 40.416 Q 483.393 40.665 484.84 41.199 A 12.209 12.209 0 0 1 486.097 41.744 A 17.003 17.003 0 0 1 489.03 43.595 A 13.655 13.655 0 0 1 491.069 45.579 A 23.751 23.751 0 0 1 492.651 47.707 Q 493.435 48.901 493.963 50.071 Z M 84.304 118.182 L 0 118.182 L 0 100 L 84.304 100 L 84.304 118.182 Z M 84.304 43.182 L 0 43.182 L 0 25 L 84.304 25 L 84.304 43.182 Z M 84.304 18.182 L 0 18.182 L 0 0 L 84.304 0 L 84.304 18.182 Z M 84.304 93.182 L 0 93.182 L 0 75 L 84.304 75 L 84.304 93.182 Z M 84.304 68.182 L 0 68.182 L 0 50 L 84.304 50 L 84.304 68.182 Z M 294.957 80.682 L 294.957 27.841 L 310.085 27.841 L 310.085 78.693 A 11.079 11.079 0 0 0 310.148 79.911 Q 310.212 80.491 310.343 80.974 A 4.332 4.332 0 0 0 310.724 81.942 A 3.706 3.706 0 0 0 311.592 83.01 A 3.423 3.423 0 0 0 312.518 83.558 A 6.251 6.251 0 0 0 313.892 83.925 A 8.59 8.59 0 0 0 315.199 84.02 A 11.793 11.793 0 0 0 317.33 83.825 Q 318.395 83.629 318.963 83.523 L 321.342 94.78 A 23.798 23.798 0 0 1 320.716 94.965 Q 320.011 95.164 319.061 95.396 A 86.45 86.45 0 0 1 318.146 95.614 A 19.743 19.743 0 0 1 316.326 95.942 Q 314.889 96.137 313.139 96.2 A 31.357 31.357 0 0 1 311.919 96.224 Q 309.599 96.224 307.54 95.866 A 19.283 19.283 0 0 1 303.569 94.744 A 13.868 13.868 0 0 1 299.064 91.848 A 13.122 13.122 0 0 1 297.195 89.56 Q 294.957 86.098 294.957 80.846 A 24.845 24.845 0 0 1 294.957 80.682 Z M 414.626 95.794 A 32.591 32.591 0 0 0 421.662 96.52 A 33.702 33.702 0 0 0 427.318 96.064 A 25.272 25.272 0 0 0 435.955 92.987 A 23.88 23.88 0 0 0 445.241 83.114 A 28.312 28.312 0 0 0 447.742 76.035 A 36.445 36.445 0 0 0 448.509 68.395 A 38.234 38.234 0 0 0 448.049 62.353 A 28.938 28.938 0 0 0 445.241 53.604 A 23.88 23.88 0 0 0 435.955 43.732 A 24.788 24.788 0 0 0 428.697 40.924 A 32.591 32.591 0 0 0 421.662 40.199 A 33.702 33.702 0 0 0 416.006 40.655 A 25.272 25.272 0 0 0 407.369 43.732 A 23.88 23.88 0 0 0 398.082 53.604 A 28.364 28.364 0 0 0 395.533 60.936 A 37.061 37.061 0 0 0 394.815 68.395 A 38.034 38.034 0 0 0 395.219 74.035 A 29.077 29.077 0 0 0 398.082 83.114 A 23.88 23.88 0 0 0 407.369 92.987 A 24.788 24.788 0 0 0 414.626 95.794 Z M 539.52 95.794 A 32.591 32.591 0 0 0 546.555 96.52 A 33.702 33.702 0 0 0 552.211 96.064 A 25.272 25.272 0 0 0 560.849 92.987 A 23.88 23.88 0 0 0 570.135 83.114 A 28.312 28.312 0 0 0 572.635 76.035 A 36.445 36.445 0 0 0 573.402 68.395 A 38.234 38.234 0 0 0 572.943 62.353 A 28.938 28.938 0 0 0 570.135 53.604 A 23.88 23.88 0 0 0 560.849 43.732 A 24.788 24.788 0 0 0 553.591 40.924 A 32.591 32.591 0 0 0 546.555 40.199 A 33.702 33.702 0 0 0 540.9 40.655 A 25.272 25.272 0 0 0 532.262 43.732 A 23.88 23.88 0 0 0 522.976 53.604 A 28.364 28.364 0 0 0 520.427 60.936 A 37.061 37.061 0 0 0 519.709 68.395 A 38.034 38.034 0 0 0 520.113 74.035 A 29.077 29.077 0 0 0 522.976 83.114 A 23.88 23.88 0 0 0 532.262 92.987 A 24.788 24.788 0 0 0 539.52 95.794 Z M 421.733 84.801 A 10.867 10.867 0 0 0 424.789 84.39 A 8.665 8.665 0 0 0 428.018 82.653 Q 430.54 80.504 431.836 76.776 A 22.804 22.804 0 0 0 432.884 72.255 A 30.402 30.402 0 0 0 433.132 68.288 A 29.894 29.894 0 0 0 432.818 63.854 A 22.48 22.48 0 0 0 431.836 59.801 A 15.694 15.694 0 0 0 430.41 56.743 A 11.908 11.908 0 0 0 428.018 53.906 Q 425.497 51.74 421.733 51.74 A 11.009 11.009 0 0 0 418.592 52.17 A 8.893 8.893 0 0 0 415.359 53.906 A 12.069 12.069 0 0 0 412.53 57.422 A 15.894 15.894 0 0 0 411.488 59.801 A 22.804 22.804 0 0 0 410.44 64.322 A 30.402 30.402 0 0 0 410.192 68.288 A 29.894 29.894 0 0 0 410.506 72.723 A 22.48 22.48 0 0 0 411.488 76.776 A 15.165 15.165 0 0 0 412.954 79.877 A 11.665 11.665 0 0 0 415.359 82.653 A 9.186 9.186 0 0 0 420.212 84.709 A 12.215 12.215 0 0 0 421.733 84.801 Z M 546.626 84.801 A 10.867 10.867 0 0 0 549.682 84.39 A 8.665 8.665 0 0 0 552.912 82.653 Q 555.433 80.504 556.729 76.776 A 22.804 22.804 0 0 0 557.777 72.255 A 30.402 30.402 0 0 0 558.026 68.288 A 29.894 29.894 0 0 0 557.712 63.854 A 22.48 22.48 0 0 0 556.729 59.801 A 15.694 15.694 0 0 0 555.303 56.743 A 11.908 11.908 0 0 0 552.912 53.906 Q 550.391 51.74 546.626 51.74 A 11.009 11.009 0 0 0 543.485 52.17 A 8.893 8.893 0 0 0 540.252 53.906 A 12.069 12.069 0 0 0 537.424 57.422 A 15.894 15.894 0 0 0 536.381 59.801 A 22.804 22.804 0 0 0 535.333 64.322 A 30.402 30.402 0 0 0 535.085 68.288 A 29.894 29.894 0 0 0 535.399 72.723 A 22.48 22.48 0 0 0 536.381 76.776 A 15.165 15.165 0 0 0 537.848 79.877 A 11.665 11.665 0 0 0 540.252 82.653 A 9.186 9.186 0 0 0 545.106 84.709 A 12.215 12.215 0 0 0 546.626 84.801 Z M 483.274 84.304 A 11.087 11.087 0 0 0 486.359 83.892 A 8.988 8.988 0 0 0 489.471 82.298 A 11.439 11.439 0 0 0 492.187 79.158 A 15.454 15.454 0 0 0 493.377 76.669 Q 494.744 73.047 494.744 68.182 A 29.565 29.565 0 0 0 494.486 64.17 Q 494.195 62.05 493.578 60.241 A 17.494 17.494 0 0 0 493.395 59.73 A 14.389 14.389 0 0 0 491.954 56.86 A 10.826 10.826 0 0 0 489.489 54.19 Q 486.932 52.237 483.274 52.237 A 11.376 11.376 0 0 0 480.186 52.639 A 9.034 9.034 0 0 0 476.989 54.261 A 11.426 11.426 0 0 0 474.114 57.687 A 15.077 15.077 0 0 0 473.118 59.872 Q 471.809 63.446 471.804 68.147 A 33.95 33.95 0 0 0 471.804 68.182 A 28.916 28.916 0 0 0 472.097 72.397 A 21.112 21.112 0 0 0 473.136 76.58 Q 474.467 80.22 477.006 82.262 A 9.177 9.177 0 0 0 481.592 84.192 A 12.239 12.239 0 0 0 483.274 84.304 Z M 287.5 40.909 L 320.348 40.909 L 320.348 52.273 L 287.5 52.273 L 287.5 40.909 Z" vector-effect="non-scaling-stroke"/></g></svg>